<svg width="50" height="56" viewBox="0 0 50 56" fill="none" xmlns="http://www.w3.org/2000/svg">
<path d="M49.2174 17.1538C49.2071 17.1383 49.1977 17.1223 49.1865 17.1072L42.8661 8.53353C38.9271 3.19014 32.6169 0 25.9865 0H20.8556C16.4069 0 12.1507 1.38184 8.54743 3.99623C5.38272 6.29233 3.49343 10.0004 3.49343 13.915V18.4357C1.51647 18.7494 0 20.4683 0 22.5359C0 24.6436 1.57619 26.3881 3.60936 26.6519C3.74277 27.8517 3.99189 29.0321 4.35499 30.182C2.92334 31.2954 2.1418 33.1502 2.4895 35.0564C2.72509 36.3479 3.45424 37.4774 4.48927 38.2263C3.54768 39.6514 3.04015 41.3257 3.04015 43.0593C3.04015 47.8943 6.96633 51.8279 11.7923 51.8279C15.3024 51.8279 18.6367 53.1623 21.1809 55.5853L21.3002 55.6989C21.5109 55.8996 21.7816 56 22.0525 56C22.3233 56 22.594 55.8996 22.8048 55.6989L22.924 55.5854C25.4682 53.1624 28.8024 51.8279 32.3126 51.8279C37.1385 51.8279 41.0647 47.8943 41.0647 43.0593C41.0647 41.3256 40.557 39.6514 39.6156 38.2263C40.6506 37.4773 41.3797 36.3478 41.6153 35.0564C41.8561 33.7365 41.5694 32.4017 40.808 31.2979C40.5102 30.8662 40.1531 30.491 39.7507 30.1786C40.1133 29.0298 40.3623 27.8507 40.4956 26.6519C42.2726 26.4213 43.6997 25.0594 44.031 23.3124C44.581 23.5826 45.1987 23.735 45.8516 23.735C48.139 23.735 50 21.8705 50 19.5787C49.9997 18.6741 49.709 17.8368 49.2174 17.1538ZM3.49343 24.3865C2.73164 24.1168 2.18339 23.3902 2.18339 22.5358C2.18339 21.6814 2.73164 20.9547 3.49343 20.6851V24.3865ZM5.67682 17.5819V13.915C5.67682 13.4123 6.08489 13.0035 6.58653 13.0035H37.5179C38.0195 13.0035 38.4276 13.4123 38.4276 13.915V17.5819V17.6823C38.4276 18.1849 38.0195 18.5937 37.5179 18.5937H6.58653C6.08489 18.5937 5.67682 18.1849 5.67682 17.6823V17.5819ZM5.67682 20.6443C5.96459 20.7332 6.27005 20.7812 6.58653 20.7812H37.5179C37.8344 20.7812 38.1399 20.7331 38.4276 20.6443V24.5697C38.4276 26.166 38.2001 27.7354 37.7519 29.247C37.6964 29.2349 37.6407 29.2224 37.5843 29.212C36.2669 28.9706 34.9345 29.2581 33.8327 30.0209C32.881 30.6797 32.2007 31.6256 31.8775 32.7215C31.8578 32.7215 31.8392 32.7215 31.8181 32.7215C31.1308 32.7215 30.3975 32.211 29.5484 31.6198C28.4914 30.8839 27.1941 29.9827 25.5125 29.8549C25.5423 29.6691 25.5585 29.4788 25.5585 29.2847C25.5585 28.6807 25.0697 28.1909 24.4668 28.1909C23.8638 28.1909 23.3751 28.6807 23.3751 29.2847C23.3751 30.0497 22.7538 30.6723 21.99 30.6723C21.2263 30.6723 20.605 30.0498 20.605 29.2847C20.605 28.6807 20.1162 28.1909 19.5133 28.1909C18.9104 28.1909 18.4216 28.6807 18.4216 29.2847C18.4216 29.4788 18.4377 29.6691 18.4676 29.8549C16.7858 29.9827 15.4885 30.8839 14.4317 31.6198C13.6088 32.1927 12.8949 32.6885 12.2259 32.7187C11.5068 30.2951 9.05911 28.7471 6.52015 29.212C6.46349 29.2224 6.40793 29.235 6.35203 29.2473C5.90411 27.7355 5.67682 26.1655 5.67682 24.5697V20.6443ZM22.8335 34.9822C22.6262 34.7292 22.3167 34.5828 21.9899 34.5828C21.6632 34.5828 21.3538 34.7293 21.1464 34.9822C20.0002 36.3798 18.3654 37.0031 15.8455 37.0031C14.2095 37.0031 12.8212 35.9771 11.9231 34.9067C11.9989 34.9084 12.0783 34.909 12.1617 34.909C13.5332 34.909 14.6233 34.1501 15.6774 33.4162C16.7045 32.7011 17.6744 32.0257 18.8706 32.0257C19.299 32.0257 20.1792 32.1702 21.2641 33.138C21.6779 33.5074 22.3023 33.5074 22.7161 33.138C23.8009 32.1702 24.6812 32.0257 25.1092 32.0257C26.3054 32.0257 27.2755 32.7011 28.3024 33.4162C29.3566 34.1501 30.4467 34.909 31.8181 34.909C31.9015 34.909 31.9809 34.9083 32.0568 34.9067C31.1586 35.9771 29.7703 37.0031 28.1343 37.0031C25.6145 37.0031 23.9796 36.3799 22.8335 34.9822ZM24.3787 38.629C24.1353 39.7259 23.1571 40.5488 21.99 40.5488C20.823 40.5488 19.8447 39.7259 19.6014 38.629C20.511 38.3097 21.3022 37.8528 21.99 37.2474C22.6779 37.8528 23.4691 38.3097 24.3787 38.629ZM39.4673 34.6629C39.2837 35.6695 38.5683 36.502 37.6002 36.8357C37.2519 36.9557 36.9875 37.2435 36.897 37.6011C36.8065 37.9589 36.9021 38.3379 37.1512 38.6097C38.2667 39.8268 38.8811 41.407 38.8811 43.0593C38.8811 46.6882 35.9344 49.6404 32.3123 49.6404C28.5249 49.6404 24.9137 50.9796 22.0523 53.4284C19.1909 50.9794 15.5798 49.6404 11.7922 49.6404C8.17014 49.6404 5.22344 46.6882 5.22344 43.0593C5.22344 41.4071 5.83773 39.8268 6.95334 38.6097C7.20246 38.3381 7.29799 37.9589 7.20748 37.6011C7.11698 37.2434 6.85258 36.9557 6.50432 36.8357C5.53632 36.502 4.82082 35.6695 4.6372 34.6629C4.35674 33.1249 5.37748 31.6449 6.91273 31.3638C7.6565 31.2278 8.40857 31.3898 9.03051 31.8204C9.19721 31.9358 9.34863 32.0673 9.48433 32.2114C9.42013 32.2449 9.36337 32.2807 9.3161 32.3153C8.83171 32.6707 8.66304 33.3206 8.87582 34.0114C8.8816 34.03 8.88782 34.0485 8.89448 34.0669C9.67679 36.1943 12.3506 39.1906 15.8455 39.1906C16.4181 39.1906 16.9576 39.1599 17.4696 39.1014C17.9291 41.1781 19.7807 42.7363 21.9898 42.7363C24.199 42.7363 26.0505 41.1781 26.51 39.1014C27.022 39.1599 27.5615 39.1906 28.1341 39.1906C31.6292 39.1906 34.3028 36.1943 35.0851 34.0669C35.0919 34.0485 35.0981 34.0299 35.1038 34.0112C35.3166 33.3205 35.1478 32.6706 34.6634 32.3153C34.6375 32.2963 34.6081 32.2769 34.577 32.2578C34.7234 32.0952 34.8892 31.948 35.0736 31.8204C35.6955 31.3898 36.4476 31.2279 37.1914 31.3639C37.935 31.5001 38.5813 31.9182 39.0111 32.5414C39.4413 33.1644 39.6032 33.9179 39.4673 34.6629ZM40.6111 24.3864V20.685C41.3729 20.9547 41.9211 21.6814 41.9211 22.5357C41.9211 23.39 41.3729 24.1168 40.6111 24.3864ZM41.776 18.8045C41.414 18.627 41.0225 18.5007 40.6111 18.4354V13.9148C40.6111 12.206 39.2235 10.8157 37.518 10.8157H6.58653C6.44144 10.8157 6.29898 10.8266 6.15913 10.846C6.30564 10.3901 6.48402 9.94545 6.69275 9.51561H16.5218C17.1248 9.51561 17.6135 9.02583 17.6135 8.42186C17.6135 7.81789 17.1248 7.32811 16.5218 7.32811H8.13204C8.63138 6.74963 9.19863 6.22452 9.82799 5.76788C13.0564 3.42551 16.8696 2.1875 20.8556 2.1875H25.9865C31.9271 2.1875 37.5808 5.04568 41.1099 9.83323L45.2615 15.4649C43.5066 15.7164 42.1032 17.0718 41.776 18.8045ZM45.8512 21.5473C44.7677 21.5473 43.8862 20.6641 43.8862 19.5785C43.8862 18.493 44.7677 17.6098 45.8512 17.6098C46.9347 17.6098 47.8163 18.493 47.8163 19.5785C47.8163 20.6641 46.9347 21.5473 45.8512 21.5473Z" fill="white"/>
<path d="M20.707 7.293C20.521 7.107 20.263 7 20 7C19.737 7 19.479 7.1069 19.293 7.293C19.107 7.479 19 7.737 19 8C19 8.263 19.107 8.521 19.293 8.7069C19.479 8.893 19.737 9 20 9C20.263 9 20.521 8.893 20.707 8.7069C20.893 8.521 21 8.263 21 8C21 7.737 20.893 7.479 20.707 7.293Z" fill="white"/>
<path d="M17.8898 24.7034C17.2732 23.6686 15.9425 23 14.5001 23C13.0578 23 11.7272 23.6686 11.1102 24.7034C10.8398 25.1568 11.0841 25.6983 11.6558 25.9126C12.2275 26.127 12.9102 25.9333 13.1806 25.4798C13.4209 25.0767 13.9389 24.8163 14.5 24.8163C15.0611 24.8163 15.5792 25.0767 15.8194 25.4798C16.015 25.8078 16.4263 26 16.8554 26C17.0194 26 17.186 25.9719 17.3442 25.9126C17.9159 25.6983 18.1602 25.1568 17.8898 24.7034Z" fill="white"/>
<path d="M31.8898 24.7034C31.2732 23.6686 29.9425 23 28.5001 23C27.0578 23 25.7272 23.6686 25.1102 24.7034C24.8398 25.1568 25.0841 25.6983 25.6558 25.9126C26.2276 26.127 26.9103 25.9333 27.1806 25.4798C27.4209 25.0767 27.9389 24.8163 28.5 24.8163C29.0611 24.8163 29.5792 25.0767 29.8194 25.4798C30.015 25.8078 30.4263 26 30.8554 26C31.0194 26 31.186 25.9719 31.3442 25.9126C31.9159 25.6983 32.1602 25.1568 31.8898 24.7034Z" fill="white"/>
<path d="M35.8353 42C35.1921 42 34.6707 42.4346 34.6707 42.9706C34.6707 44.122 33.5465 45.0589 32.1647 45.0589C31.5214 45.0589 31 45.4935 31 46.0294C31 46.5654 31.5214 47 32.1647 47C34.8309 47 37 45.1924 37 42.9706C37 42.4345 36.4786 42 35.8353 42Z" fill="white"/>
<path d="M29.707 46.293C29.521 46.107 29.263 46 29 46C28.737 46 28.479 46.1069 28.293 46.293C28.107 46.479 28 46.737 28 47C28 47.264 28.107 47.521 28.293 47.7069C28.479 47.8939 28.737 48 29 48C29.263 48 29.521 47.8939 29.707 47.7069C29.893 47.521 30 47.263 30 47C30 46.737 29.893 46.479 29.707 46.293Z" fill="white"/>
</svg>
